<?xml version="1.0" encoding="UTF-8" standalone="no"?>
<!DOCTYPE svg PUBLIC "-//W3C//DTD SVG 1.1//EN" "http://www.w3.org/Graphics/SVG/1.1/DTD/svg11.dtd">
<svg width="100%" height="100%" viewBox="0 0 280 119" version="1.1" xmlns="http://www.w3.org/2000/svg" xmlns:xlink="http://www.w3.org/1999/xlink" xml:space="preserve" xmlns:serif="http://www.serif.com/" style="fill-rule:evenodd;clip-rule:evenodd;stroke-linejoin:round;stroke-miterlimit:2;">
    <g id="Layer_4" transform="matrix(1,0,0,1,-1.1,-95.9)">
        <g id="g930">
            <g>
                <g id="Layer_41" serif:id="Layer_4">
                    <path id="path45" d="M264.7,128.3C268.2,122.5 273.4,119.2 273.4,119.2L234.1,111.9C233.1,113.6 231.9,115.8 230.6,118.2C246.1,119.8 258.6,125.2 264.7,128.3Z" style="fill:rgb(204,235,197);fill-rule:nonzero;"/>
                    <path id="path47" d="M191.7,123.9C204.3,118.4 216.9,117.2 228.1,118.1C229.4,115.6 230.7,113.4 231.7,111.5L184.8,102.8C183,105.9 176.4,117.4 171.1,129.7C177.4,128.9 184.3,127.1 191.7,123.9Z" style="fill:rgb(222,203,228);fill-rule:nonzero;"/>
                    <path id="path49" d="M168.3,130.1C173.4,118 179.9,106.5 182.3,102.4L149.5,96.3C149.5,96.3 140.7,108 133.2,122.7C139.2,126.1 151.6,131.4 168.3,130.1Z" style="fill:rgb(204,235,197);fill-rule:nonzero;"/>
                    <path id="path51" d="M141.1,200.3C147.3,208.8 152.8,214.5 152.8,214.5L180.2,208.7C177.2,202.8 172.4,193.3 168.5,183.4C154.7,185.8 146,194 141.1,200.3Z" style="fill:rgb(222,203,228);fill-rule:nonzero;"/>
                    <path id="path53" d="M167.5,181.2C163.8,171.7 161,162.1 161.3,155.2C161.5,148.8 164,140.6 167.3,132.5C165.8,132.6 164.4,132.6 163,132.6C156.3,132.6 150.5,131.6 146,130.4C140,128.8 135.3,126.6 132.2,124.8C126.9,135.4 122.5,147.3 122.5,157.4C122.5,171 131.5,186.8 139.7,198.3C144.9,191.8 153.8,183.7 167.5,181.2Z" style="fill:rgb(251,180,174);fill-rule:nonzero;"/>
                    <path id="path55" d="M225.3,190.2C216.6,190.9 210.5,189.1 203.7,187.2C196.6,185.1 188.6,182.8 175.8,182.9C174.1,182.9 172.5,183 170.9,183.2C174.9,193.1 179.7,202.7 182.6,208.3L228.5,198.6C228.5,198.5 228.4,198.4 228.4,198.3C227.4,195.9 226.3,193.1 225.3,190.2Z" style="fill:rgb(255,255,204);fill-rule:nonzero;"/>
                    <path id="path57" d="M175.7,180.5L176.4,180.5C189.2,180.5 197.2,182.8 204.3,184.9C210.7,186.7 216.4,188.4 224.5,187.9C221.3,178.7 218,167.4 217.1,155.5C216.3,144.5 221.8,130.7 226.9,120.4C216.3,119.7 204.5,120.9 192.6,126.1C184.4,129.7 176.8,131.5 169.9,132.3C166.4,140.6 163.7,149.1 163.5,155.4C163.3,162 166.1,171.5 169.8,180.9C171.7,180.6 173.7,180.5 175.7,180.5Z" style="fill:rgb(254,217,166);fill-rule:nonzero;"/>
                    <path id="path59" d="M235.3,188.5C232.5,189.2 230,189.6 227.7,189.9C228.7,192.6 229.7,195.2 230.5,197.4C230.6,197.6 230.7,197.8 230.7,198L248.3,194.3C260.9,191.6 275,179.3 273.4,165.5C267.8,171.6 254.5,183.8 235.3,188.5Z" style="fill:rgb(251,180,174);fill-rule:nonzero;"/>
                    <path id="path61" d="M226.8,187.6C229.2,187.3 231.8,186.9 234.7,186.2C254.9,181.3 268.4,167.8 273,162.7C272.2,159.9 270.8,157 268.5,154.2C260.4,144.6 260.9,136.4 263.7,130.4C257.6,127.3 245,121.9 229.6,120.5C224.4,130.6 218.7,144.6 219.5,155.2C220.3,167.2 223.6,178.4 226.8,187.6Z" style="fill:rgb(179,205,227);fill-rule:nonzero;"/>
                </g>
            </g>
        </g>
    </g>
    <g transform="matrix(1,0,0,1,76.1618,-70.4019)">
        <path d="M67.661,145.392C69.294,145.392 70.803,145.058 72.188,144.39C73.574,143.722 74.712,142.8 75.602,141.625C76.493,140.45 77,139.108 77.124,137.599L83.655,137.599C83.531,139.974 82.733,142.182 81.261,144.223C79.789,146.264 77.866,147.909 75.491,149.158C73.116,150.408 70.506,151.032 67.661,151.032C64.643,151.032 62.014,150.5 59.775,149.437C57.536,148.373 55.681,146.913 54.209,145.058C52.737,143.202 51.636,141.068 50.906,138.656C50.176,136.244 49.811,133.69 49.811,130.993L49.811,129.435C49.811,126.738 50.176,124.184 50.906,121.772C51.636,119.359 52.737,117.226 54.209,115.37C55.681,113.515 57.536,112.055 59.775,110.991C62.014,109.928 64.643,109.396 67.661,109.396C70.803,109.396 73.549,110.033 75.899,111.307C78.249,112.581 80.099,114.313 81.447,116.502C82.795,118.692 83.531,121.172 83.655,123.943L77.124,123.943C77,122.285 76.536,120.788 75.732,119.452C74.928,118.116 73.84,117.046 72.467,116.242C71.093,115.438 69.492,115.036 67.661,115.036C65.558,115.036 63.795,115.451 62.373,116.279C60.95,117.108 59.825,118.221 58.996,119.619C58.167,121.017 57.573,122.563 57.215,124.258C56.856,125.953 56.677,127.678 56.677,129.435L56.677,130.993C56.677,132.75 56.85,134.482 57.196,136.189C57.542,137.896 58.13,139.442 58.959,140.827C59.788,142.213 60.913,143.32 62.336,144.149C63.758,144.977 65.533,145.392 67.661,145.392Z" style="fill:none;fill-rule:nonzero;stroke:white;stroke-width:8px;"/>
        <path d="M67.661,145.392C69.294,145.392 70.803,145.058 72.188,144.39C73.574,143.722 74.712,142.8 75.602,141.625C76.493,140.45 77,139.108 77.124,137.599L83.655,137.599C83.531,139.974 82.733,142.182 81.261,144.223C79.789,146.264 77.866,147.909 75.491,149.158C73.116,150.408 70.506,151.032 67.661,151.032C64.643,151.032 62.014,150.5 59.775,149.437C57.536,148.373 55.681,146.913 54.209,145.058C52.737,143.202 51.636,141.068 50.906,138.656C50.176,136.244 49.811,133.69 49.811,130.993L49.811,129.435C49.811,126.738 50.176,124.184 50.906,121.772C51.636,119.359 52.737,117.226 54.209,115.37C55.681,113.515 57.536,112.055 59.775,110.991C62.014,109.928 64.643,109.396 67.661,109.396C70.803,109.396 73.549,110.033 75.899,111.307C78.249,112.581 80.099,114.313 81.447,116.502C82.795,118.692 83.531,121.172 83.655,123.943L77.124,123.943C77,122.285 76.536,120.788 75.732,119.452C74.928,118.116 73.84,117.046 72.467,116.242C71.093,115.438 69.492,115.036 67.661,115.036C65.558,115.036 63.795,115.451 62.373,116.279C60.95,117.108 59.825,118.221 58.996,119.619C58.167,121.017 57.573,122.563 57.215,124.258C56.856,125.953 56.677,127.678 56.677,129.435L56.677,130.993C56.677,132.75 56.85,134.482 57.196,136.189C57.542,137.896 58.13,139.442 58.959,140.827C59.788,142.213 60.913,143.32 62.336,144.149C63.758,144.977 65.533,145.392 67.661,145.392Z" style="fill:rgb(34,36,41);fill-rule:nonzero;"/>
        <path d="M117.33,143.425L117.33,122.755C117.33,121.172 117.014,119.792 116.383,118.617C115.752,117.442 114.806,116.533 113.544,115.89C112.283,115.247 110.724,114.925 108.869,114.925C107.137,114.925 105.622,115.222 104.323,115.816C103.024,116.409 102.01,117.189 101.28,118.153C100.55,119.118 100.185,120.157 100.185,121.271L93.32,121.271C93.32,119.836 93.691,118.413 94.433,117.003C95.175,115.593 96.245,114.313 97.643,113.162C99.041,112.012 100.723,111.096 102.69,110.416C104.657,109.736 106.852,109.396 109.277,109.396C112.196,109.396 114.775,109.89 117.014,110.88C119.253,111.87 121.01,113.36 122.284,115.352C123.558,117.343 124.195,119.836 124.195,122.829L124.195,141.532C124.195,142.868 124.312,144.291 124.547,145.8C124.782,147.309 125.135,148.608 125.605,149.696L125.605,150.29L118.443,150.29C118.096,149.498 117.824,148.441 117.626,147.117C117.429,145.794 117.33,144.563 117.33,143.425ZM118.517,125.946L118.591,130.771L111.652,130.771C109.697,130.771 107.953,130.925 106.419,131.234C104.886,131.544 103.599,132.008 102.56,132.626C101.521,133.245 100.729,134.018 100.185,134.945C99.641,135.873 99.369,136.956 99.369,138.193C99.369,139.454 99.653,140.605 100.222,141.644C100.791,142.683 101.651,143.505 102.801,144.111C103.952,144.718 105.368,145.021 107.05,145.021C109.153,145.021 111.009,144.575 112.617,143.685C114.225,142.794 115.505,141.706 116.457,140.419C117.41,139.133 117.923,137.883 117.998,136.671L120.929,139.974C120.756,141.013 120.286,142.163 119.519,143.425C118.752,144.687 117.732,145.893 116.457,147.043C115.183,148.193 113.674,149.146 111.93,149.901C110.186,150.655 108.225,151.032 106.048,151.032C103.327,151.032 100.946,150.5 98.905,149.437C96.864,148.373 95.28,146.944 94.155,145.151C93.029,143.357 92.466,141.347 92.466,139.12C92.466,136.968 92.887,135.069 93.728,133.424C94.569,131.779 95.781,130.406 97.365,129.305C98.948,128.204 100.853,127.369 103.08,126.8C105.306,126.231 107.792,125.946 110.539,125.946L118.517,125.946Z" style="fill:none;fill-rule:nonzero;stroke:white;stroke-width:8px;"/>
        <path d="M117.33,143.425L117.33,122.755C117.33,121.172 117.014,119.792 116.383,118.617C115.752,117.442 114.806,116.533 113.544,115.89C112.283,115.247 110.724,114.925 108.869,114.925C107.137,114.925 105.622,115.222 104.323,115.816C103.024,116.409 102.01,117.189 101.28,118.153C100.55,119.118 100.185,120.157 100.185,121.271L93.32,121.271C93.32,119.836 93.691,118.413 94.433,117.003C95.175,115.593 96.245,114.313 97.643,113.162C99.041,112.012 100.723,111.096 102.69,110.416C104.657,109.736 106.852,109.396 109.277,109.396C112.196,109.396 114.775,109.89 117.014,110.88C119.253,111.87 121.01,113.36 122.284,115.352C123.558,117.343 124.195,119.836 124.195,122.829L124.195,141.532C124.195,142.868 124.312,144.291 124.547,145.8C124.782,147.309 125.135,148.608 125.605,149.696L125.605,150.29L118.443,150.29C118.096,149.498 117.824,148.441 117.626,147.117C117.429,145.794 117.33,144.563 117.33,143.425ZM118.517,125.946L118.591,130.771L111.652,130.771C109.697,130.771 107.953,130.925 106.419,131.234C104.886,131.544 103.599,132.008 102.56,132.626C101.521,133.245 100.729,134.018 100.185,134.945C99.641,135.873 99.369,136.956 99.369,138.193C99.369,139.454 99.653,140.605 100.222,141.644C100.791,142.683 101.651,143.505 102.801,144.111C103.952,144.718 105.368,145.021 107.05,145.021C109.153,145.021 111.009,144.575 112.617,143.685C114.225,142.794 115.505,141.706 116.457,140.419C117.41,139.133 117.923,137.883 117.998,136.671L120.929,139.974C120.756,141.013 120.286,142.163 119.519,143.425C118.752,144.687 117.732,145.893 116.457,147.043C115.183,148.193 113.674,149.146 111.93,149.901C110.186,150.655 108.225,151.032 106.048,151.032C103.327,151.032 100.946,150.5 98.905,149.437C96.864,148.373 95.28,146.944 94.155,145.151C93.029,143.357 92.466,141.347 92.466,139.12C92.466,136.968 92.887,135.069 93.728,133.424C94.569,131.779 95.781,130.406 97.365,129.305C98.948,128.204 100.853,127.369 103.08,126.8C105.306,126.231 107.792,125.946 110.539,125.946L118.517,125.946Z" style="fill:rgb(34,36,41);fill-rule:nonzero;"/>
        <path d="M144.139,116.446L144.139,150.29L137.274,150.29L137.274,110.138L143.953,110.138L144.139,116.446ZM156.682,109.915L156.645,116.298C156.076,116.174 155.538,116.094 155.03,116.057C154.523,116.02 153.948,116.001 153.305,116.001C151.722,116.001 150.324,116.248 149.112,116.743C147.899,117.238 146.873,117.931 146.031,118.821C145.19,119.712 144.528,120.77 144.046,121.994C143.564,123.219 143.248,124.561 143.1,126.021L141.17,127.134C141.17,124.709 141.411,122.433 141.894,120.306C142.376,118.178 143.125,116.292 144.139,114.647C145.153,113.001 146.446,111.715 148.017,110.787C149.588,109.859 151.462,109.396 153.639,109.396C154.134,109.396 154.703,109.451 155.346,109.563C155.989,109.674 156.434,109.791 156.682,109.915Z" style="fill:none;fill-rule:nonzero;stroke:white;stroke-width:8px;"/>
        <path d="M144.139,116.446L144.139,150.29L137.274,150.29L137.274,110.138L143.953,110.138L144.139,116.446ZM156.682,109.915L156.645,116.298C156.076,116.174 155.538,116.094 155.03,116.057C154.523,116.02 153.948,116.001 153.305,116.001C151.722,116.001 150.324,116.248 149.112,116.743C147.899,117.238 146.873,117.931 146.031,118.821C145.19,119.712 144.528,120.77 144.046,121.994C143.564,123.219 143.248,124.561 143.1,126.021L141.17,127.134C141.17,124.709 141.411,122.433 141.894,120.306C142.376,118.178 143.125,116.292 144.139,114.647C145.153,113.001 146.446,111.715 148.017,110.787C149.588,109.859 151.462,109.396 153.639,109.396C154.134,109.396 154.703,109.451 155.346,109.563C155.989,109.674 156.434,109.791 156.682,109.915Z" style="fill:rgb(34,36,41);fill-rule:nonzero;"/>
        <path d="M183.974,110.138L183.974,115.407L162.265,115.407L162.265,110.138L183.974,110.138ZM169.612,100.378L176.477,100.378L176.477,140.345C176.477,141.706 176.688,142.732 177.108,143.425C177.529,144.118 178.073,144.575 178.741,144.798C179.409,145.021 180.127,145.132 180.893,145.132C181.462,145.132 182.062,145.076 182.693,144.965C183.324,144.854 183.8,144.761 184.122,144.687L184.159,150.29C183.615,150.463 182.904,150.63 182.025,150.791C181.147,150.952 180.089,151.032 178.852,151.032C177.17,151.032 175.624,150.698 174.214,150.03C172.804,149.362 171.684,148.243 170.855,146.672C170.027,145.101 169.612,142.98 169.612,140.308L169.612,100.378Z" style="fill:none;fill-rule:nonzero;stroke:white;stroke-width:8px;"/>
        <path d="M183.974,110.138L183.974,115.407L162.265,115.407L162.265,110.138L183.974,110.138ZM169.612,100.378L176.477,100.378L176.477,140.345C176.477,141.706 176.688,142.732 177.108,143.425C177.529,144.118 178.073,144.575 178.741,144.798C179.409,145.021 180.127,145.132 180.893,145.132C181.462,145.132 182.062,145.076 182.693,144.965C183.324,144.854 183.8,144.761 184.122,144.687L184.159,150.29C183.615,150.463 182.904,150.63 182.025,150.791C181.147,150.952 180.089,151.032 178.852,151.032C177.17,151.032 175.624,150.698 174.214,150.03C172.804,149.362 171.684,148.243 170.855,146.672C170.027,145.101 169.612,142.98 169.612,140.308L169.612,100.378Z" style="fill:rgb(34,36,41);fill-rule:nonzero;"/>
    </g>
    <g transform="matrix(1,0,0,1,-36.9906,-70.4019)">
        <path d="M79.721,110.138L85.882,110.138L79.165,149.4C78.695,152.739 77.625,155.683 75.955,158.232C74.285,160.78 72.108,162.759 69.424,164.169C66.739,165.579 63.678,166.247 60.239,166.173C58.433,166.123 56.664,165.814 54.932,165.245C53.201,164.676 51.605,163.872 50.145,162.833C48.686,161.794 47.461,160.52 46.471,159.011L50.331,155.003C51.494,156.661 52.873,157.978 54.468,158.955C56.064,159.932 57.889,160.458 59.942,160.532C62.193,160.582 64.191,160.167 65.935,159.289C67.679,158.411 69.102,157.155 70.203,155.523C71.304,153.89 72.027,151.972 72.374,149.771L77.643,118.636L79.721,110.138ZM49.403,130.956L49.514,130.14C49.811,127.666 50.399,125.192 51.277,122.718C52.155,120.244 53.337,117.986 54.821,115.945C56.305,113.904 58.124,112.284 60.276,111.084C62.428,109.884 64.94,109.309 67.809,109.359C70.407,109.433 72.572,110.039 74.303,111.177C76.035,112.315 77.402,113.818 78.404,115.686C79.406,117.554 80.086,119.601 80.445,121.827C80.804,124.054 80.909,126.293 80.76,128.544L80.352,131.958C79.932,134.358 79.239,136.708 78.274,139.009C77.309,141.31 76.06,143.382 74.526,145.225C72.992,147.068 71.168,148.521 69.052,149.585C66.937,150.649 64.531,151.144 61.835,151.069C59.188,150.97 57.004,150.29 55.285,149.028C53.566,147.767 52.236,146.14 51.296,144.149C50.356,142.157 49.749,140.005 49.477,137.692C49.205,135.378 49.18,133.133 49.403,130.956ZM56.268,130.103L56.157,130.919C55.984,132.403 55.934,133.962 56.009,135.595C56.083,137.228 56.367,138.768 56.862,140.215C57.357,141.662 58.155,142.85 59.256,143.777C60.357,144.705 61.859,145.194 63.764,145.243C65.793,145.318 67.673,144.872 69.405,143.907C71.137,142.943 72.621,141.656 73.858,140.048C75.095,138.44 75.986,136.696 76.53,134.816L77.977,125.798C78.052,124.437 77.891,123.126 77.495,121.864C77.099,120.603 76.511,119.477 75.732,118.487C74.953,117.498 74.007,116.706 72.893,116.112C71.78,115.519 70.518,115.209 69.108,115.185C67.03,115.11 65.236,115.512 63.727,116.391C62.218,117.269 60.95,118.45 59.924,119.935C58.897,121.419 58.087,123.052 57.493,124.833C56.899,126.614 56.491,128.371 56.268,130.103Z" style="fill:none;fill-rule:nonzero;stroke:white;stroke-width:6.5px;"/>
        <path d="M79.721,110.138L85.882,110.138L79.165,149.4C78.695,152.739 77.625,155.683 75.955,158.232C74.285,160.78 72.108,162.759 69.424,164.169C66.739,165.579 63.678,166.247 60.239,166.173C58.433,166.123 56.664,165.814 54.932,165.245C53.201,164.676 51.605,163.872 50.145,162.833C48.686,161.794 47.461,160.52 46.471,159.011L50.331,155.003C51.494,156.661 52.873,157.978 54.468,158.955C56.064,159.932 57.889,160.458 59.942,160.532C62.193,160.582 64.191,160.167 65.935,159.289C67.679,158.411 69.102,157.155 70.203,155.523C71.304,153.89 72.027,151.972 72.374,149.771L77.643,118.636L79.721,110.138ZM49.403,130.956L49.514,130.14C49.811,127.666 50.399,125.192 51.277,122.718C52.155,120.244 53.337,117.986 54.821,115.945C56.305,113.904 58.124,112.284 60.276,111.084C62.428,109.884 64.94,109.309 67.809,109.359C70.407,109.433 72.572,110.039 74.303,111.177C76.035,112.315 77.402,113.818 78.404,115.686C79.406,117.554 80.086,119.601 80.445,121.827C80.804,124.054 80.909,126.293 80.76,128.544L80.352,131.958C79.932,134.358 79.239,136.708 78.274,139.009C77.309,141.31 76.06,143.382 74.526,145.225C72.992,147.068 71.168,148.521 69.052,149.585C66.937,150.649 64.531,151.144 61.835,151.069C59.188,150.97 57.004,150.29 55.285,149.028C53.566,147.767 52.236,146.14 51.296,144.149C50.356,142.157 49.749,140.005 49.477,137.692C49.205,135.378 49.18,133.133 49.403,130.956ZM56.268,130.103L56.157,130.919C55.984,132.403 55.934,133.962 56.009,135.595C56.083,137.228 56.367,138.768 56.862,140.215C57.357,141.662 58.155,142.85 59.256,143.777C60.357,144.705 61.859,145.194 63.764,145.243C65.793,145.318 67.673,144.872 69.405,143.907C71.137,142.943 72.621,141.656 73.858,140.048C75.095,138.44 75.986,136.696 76.53,134.816L77.977,125.798C78.052,124.437 77.891,123.126 77.495,121.864C77.099,120.603 76.511,119.477 75.732,118.487C74.953,117.498 74.007,116.706 72.893,116.112C71.78,115.519 70.518,115.209 69.108,115.185C67.03,115.11 65.236,115.512 63.727,116.391C62.218,117.269 60.95,118.45 59.924,119.935C58.897,121.419 58.087,123.052 57.493,124.833C56.899,126.614 56.491,128.371 56.268,130.103Z" style="fill:rgb(215,97,39);fill-rule:nonzero;"/>
        <path d="M90.706,130.882L90.817,130.028C91.114,127.332 91.788,124.734 92.84,122.235C93.891,119.737 95.283,117.51 97.014,115.556C98.746,113.601 100.8,112.068 103.175,110.954C105.55,109.841 108.197,109.321 111.116,109.396C113.936,109.445 116.355,110.051 118.371,111.214C120.387,112.377 122.02,113.917 123.269,115.834C124.519,117.751 125.391,119.91 125.885,122.31C126.38,124.709 126.504,127.183 126.257,129.732L126.182,130.585C125.861,133.282 125.168,135.867 124.104,138.341C123.04,140.815 121.636,143.017 119.892,144.946C118.148,146.876 116.089,148.391 113.714,149.492C111.339,150.593 108.704,151.107 105.809,151.032C103.014,150.983 100.608,150.383 98.592,149.233C96.575,148.082 94.949,146.554 93.712,144.65C92.475,142.745 91.609,140.605 91.114,138.23C90.619,135.855 90.483,133.405 90.706,130.882ZM97.497,130.028L97.423,130.919C97.249,132.478 97.243,134.098 97.404,135.78C97.565,137.463 97.961,139.021 98.592,140.456C99.222,141.891 100.144,143.066 101.356,143.982C102.568,144.897 104.139,145.379 106.069,145.429C108.122,145.478 109.928,145.076 111.487,144.223C113.046,143.369 114.375,142.213 115.476,140.753C116.577,139.293 117.455,137.673 118.111,135.892C118.767,134.11 119.206,132.342 119.428,130.585L119.503,129.732C119.676,128.173 119.682,126.546 119.521,124.852C119.36,123.157 118.965,121.574 118.334,120.102C117.703,118.63 116.781,117.43 115.569,116.502C114.357,115.574 112.786,115.086 110.856,115.036C108.803,114.962 106.991,115.364 105.42,116.242C103.849,117.121 102.519,118.302 101.43,119.786C100.342,121.271 99.47,122.91 98.814,124.703C98.159,126.497 97.719,128.272 97.497,130.028Z" style="fill:none;fill-rule:nonzero;stroke:white;stroke-width:6.5px;"/>
        <path d="M90.706,130.882L90.817,130.028C91.114,127.332 91.788,124.734 92.84,122.235C93.891,119.737 95.283,117.51 97.014,115.556C98.746,113.601 100.8,112.068 103.175,110.954C105.55,109.841 108.197,109.321 111.116,109.396C113.936,109.445 116.355,110.051 118.371,111.214C120.387,112.377 122.02,113.917 123.269,115.834C124.519,117.751 125.391,119.91 125.885,122.31C126.38,124.709 126.504,127.183 126.257,129.732L126.182,130.585C125.861,133.282 125.168,135.867 124.104,138.341C123.04,140.815 121.636,143.017 119.892,144.946C118.148,146.876 116.089,148.391 113.714,149.492C111.339,150.593 108.704,151.107 105.809,151.032C103.014,150.983 100.608,150.383 98.592,149.233C96.575,148.082 94.949,146.554 93.712,144.65C92.475,142.745 91.609,140.605 91.114,138.23C90.619,135.855 90.483,133.405 90.706,130.882ZM97.497,130.028L97.423,130.919C97.249,132.478 97.243,134.098 97.404,135.78C97.565,137.463 97.961,139.021 98.592,140.456C99.222,141.891 100.144,143.066 101.356,143.982C102.568,144.897 104.139,145.379 106.069,145.429C108.122,145.478 109.928,145.076 111.487,144.223C113.046,143.369 114.375,142.213 115.476,140.753C116.577,139.293 117.455,137.673 118.111,135.892C118.767,134.11 119.206,132.342 119.428,130.585L119.503,129.732C119.676,128.173 119.682,126.546 119.521,124.852C119.36,123.157 118.965,121.574 118.334,120.102C117.703,118.63 116.781,117.43 115.569,116.502C114.357,115.574 112.786,115.086 110.856,115.036C108.803,114.962 106.991,115.364 105.42,116.242C103.849,117.121 102.519,118.302 101.43,119.786C100.342,121.271 99.47,122.91 98.814,124.703C98.159,126.497 97.719,128.272 97.497,130.028Z" style="fill:rgb(215,97,39);fill-rule:nonzero;"/>
        <path d="M153.213,124.499L152.211,130.14L134.584,130.14L135.586,124.499L153.213,124.499Z" style="fill:none;fill-rule:nonzero;stroke:white;stroke-width:6.5px;"/>
        <path d="M153.213,124.499L152.211,130.14L134.584,130.14L135.586,124.499L153.213,124.499Z" style="fill:rgb(215,97,39);fill-rule:nonzero;"/>
    </g>
</svg>
